<svg xmlns="http://www.w3.org/2000/svg" version="1.1" xmlns:xlink="http://www.w3.org/1999/xlink" xmlns:svgjs="http://svgjs.dev/svgjs" width="308.7612359841165"
   height="304.915625" viewBox="0 0 2000 1247">
    <g transform="matrix(1,0,0,1,-1.2121212121212466,0.504858299595071)">
        <svg viewBox="0 0 396 247" data-background-color="#ffffff" preserveAspectRatio="xMidYMid meet" height="1247" width="2000" xmlns="http://www.w3.org/2000/svg" xmlns:xlink="http://www.w3.org/1999/xlink">
            <g id="tight-bounds" transform="matrix(1,0,0,1,0.2400000000000091,-0.09999999999999432)">
                <svg viewBox="0 0 395.52 247.2" height="247.2" width="395.52">
                    <g>
                        <svg></svg>
                    </g>
                    <g>
                        <svg viewBox="0 0 395.52 247.2" height="247.2" width="395.52">
                            <g transform="matrix(1,0,0,1,130.032144,47.215199999999996)">
                                <svg viewBox="0 0 135.455712 152.7696" height="152.7696" width="135.455712">
                                    <g>
                                        <svg viewBox="0 0 135.455712 152.7696" height="152.7696" width="135.455712">
                                            <g>
                                                <svg viewBox="0 0 135.455712 152.7696" height="152.7696" width="135.455712">
                                                    <g>
                                                        <svg viewBox="0 0 135.455712 152.7696" height="152.7696" width="135.455712">
                                                            <g id="textblocktransform">
                                                                <svg viewBox="0 0 135.455712 152.7696" height="152.7696" width="135.455712" id="textblock">
                                                                    <g>
                                                                        <svg viewBox="0 0 135.455712 152.7696" height="152.7696" width="135.455712">
                                                                            <g transform="matrix(1,0,0,1,0,0)">
                                                                                <svg width="135.455712" viewBox="2.7 -36.25 33.25 37.5" height="152.7696" data-palette-color="#b78fd2">
                                                                                    <path d="M16.8 1.25L16.8 1.25Q12.55 1.25 9.38-0.65 6.2-2.55 4.45-5.98 2.7-9.4 2.7-14.05L2.7-14.05Q2.7-19.2 4.23-23.3 5.75-27.4 8.4-30.3 11.05-33.2 14.5-34.73 17.95-36.25 21.75-36.25L21.75-36.25Q24.25-36.25 25.45-35.52 26.65-34.8 26.65-33.25L26.65-33.25Q26.65-32.75 26.58-32.33 26.5-31.9 26.25-31.35L26.25-31.35Q25.7-31.5 24.83-31.63 23.95-31.75 23.3-31.75L23.3-31.75Q19.35-31.75 16.15-29.58 12.95-27.4 11.05-23.48 9.15-19.55 9.15-14.25L9.15-14.25Q9.15-8.2 11.63-5.23 14.1-2.25 18.15-2.25L18.15-2.25Q20.2-2.25 22.3-3.28 24.4-4.3 26.25-6.2 28.1-8.1 29.43-10.8 30.75-13.5 31.15-16.8L31.15-16.8Q27.95-18.25 26.78-20.4 25.6-22.55 25.6-24.9L25.6-24.9Q25.6-26.55 26.25-27.83 26.9-29.1 28-29.85 29.1-30.6 30.5-30.6L30.5-30.6Q33.1-30.6 34.52-28.33 35.95-26.05 35.95-22.05L35.95-22.05Q35.95-17.15 34.52-12.9 33.1-8.65 30.53-5.48 27.95-2.3 24.45-0.53 20.95 1.25 16.8 1.25Z" opacity="1" transform="matrix(1,0,0,1,0,0)" fill="#b78fd2" class="wordmark-text-0" data-fill-palette-color="primary" id="text-0"></path>
                                                                                </svg>
                                                                            </g>
                                                                        </svg>
                                                                    </g>
                                                                </svg>
                                                            </g>
                                                        </svg>
                                                    </g>
                                                </svg>
                                            </g>
                                        </svg>
                                    </g>
                                </svg>
                            </g>
                        </svg>
                    </g>
                </svg>
            </g>
            <g>
                <path d="M0 123.6c0-68.262 55.338-123.6 123.6-123.6 30.402 0 58.24 10.976 79.768 29.183l-11.147 0c-19.26-14.022-42.974-22.294-68.621-22.295-64.458 0-116.712 52.254-116.712 116.712 0 64.458 52.254 116.712 116.712 116.712 25.647 0 49.361-8.272 68.621-22.295l11.147 0c-21.528 18.206-49.366 29.183-79.768 29.183-68.262 0-123.6-55.338-123.6-123.6z" fill="#d5bce5" stroke="transparent" data-fill-palette-color="tertiary"></path>
            </g>
        </svg>
    </g>
    <defs></defs>
    <rect width="395.52" height="247.2" fill="none" stroke="none" visibility="hidden"></rect>
</svg>
